<svg xmlns="http://www.w3.org/2000/svg" xmlns:xlink="http://www.w3.org/1999/xlink" width="200" zoomAndPan="magnify" viewBox="0 0 150 149.999998" height="200" preserveAspectRatio="xMidYMid meet" version="1.0"><defs><g/></defs><g fill="#114d4d" fill-opacity="1"><g transform="translate(46.327414, 80.252129)"><g><path d="M 7.125 0 L 0.46875 0 L 0.46875 -1.140625 L 0.9375 -1.171875 C 1.207031 -1.203125 1.34375 -1.332031 1.34375 -1.5625 L 1.34375 -8.078125 L 0.546875 -8.125 L 0.546875 -9.3125 L 6.953125 -9.3125 L 6.953125 -6.984375 L 5.53125 -6.890625 L 5.53125 -7.453125 C 5.53125 -7.609375 5.503906 -7.71875 5.453125 -7.78125 C 5.410156 -7.84375 5.300781 -7.875 5.125 -7.875 L 3.046875 -7.875 L 3.046875 -5.484375 L 6.28125 -5.484375 L 6.28125 -4.0625 L 3.046875 -4.0625 L 3.046875 -1.4375 L 5.3125 -1.4375 C 5.476562 -1.4375 5.582031 -1.472656 5.625 -1.546875 C 5.675781 -1.617188 5.703125 -1.734375 5.703125 -1.890625 L 5.703125 -2.59375 L 7.125 -2.484375 Z M 7.125 0 "/></g></g></g><g fill="#114d4d" fill-opacity="1"><g transform="translate(54.009123, 80.252129)"><g><path d="M 7.09375 0 L 0.453125 0 L 0.453125 -1.140625 L 0.90625 -1.171875 C 1.175781 -1.203125 1.3125 -1.332031 1.3125 -1.5625 L 1.3125 -8.078125 L 0.515625 -8.125 L 0.515625 -9.3125 L 3.890625 -9.3125 L 3.890625 -8.171875 L 3.4375 -8.140625 C 3.164062 -8.109375 3.03125 -7.957031 3.03125 -7.6875 L 3.03125 -1.4375 L 5.34375 -1.4375 C 5.476562 -1.4375 5.566406 -1.472656 5.609375 -1.546875 C 5.648438 -1.617188 5.671875 -1.734375 5.671875 -1.890625 L 5.671875 -2.875 L 7.09375 -2.765625 Z M 7.09375 0 "/></g></g></g><g fill="#114d4d" fill-opacity="1"><g transform="translate(61.522924, 80.252129)"><g><path d="M 7.125 0 L 0.46875 0 L 0.46875 -1.140625 L 0.9375 -1.171875 C 1.207031 -1.203125 1.34375 -1.332031 1.34375 -1.5625 L 1.34375 -8.078125 L 0.546875 -8.125 L 0.546875 -9.3125 L 6.953125 -9.3125 L 6.953125 -6.984375 L 5.53125 -6.890625 L 5.53125 -7.453125 C 5.53125 -7.609375 5.503906 -7.71875 5.453125 -7.78125 C 5.410156 -7.84375 5.300781 -7.875 5.125 -7.875 L 3.046875 -7.875 L 3.046875 -5.484375 L 6.28125 -5.484375 L 6.28125 -4.0625 L 3.046875 -4.0625 L 3.046875 -1.4375 L 5.3125 -1.4375 C 5.476562 -1.4375 5.582031 -1.472656 5.625 -1.546875 C 5.675781 -1.617188 5.703125 -1.734375 5.703125 -1.890625 L 5.703125 -2.59375 L 7.125 -2.484375 Z M 7.125 0 "/></g></g></g><g fill="#114d4d" fill-opacity="1"><g transform="translate(69.204633, 80.252129)"><g><path d="M 0.46875 0 L 0.46875 -1.140625 L 0.9375 -1.171875 C 1.207031 -1.203125 1.34375 -1.332031 1.34375 -1.5625 L 1.34375 -8.078125 L 0.546875 -8.125 L 0.546875 -9.3125 L 7.3125 -9.3125 L 7.3125 -6.984375 L 5.875 -6.890625 L 5.875 -7.453125 C 5.875 -7.609375 5.847656 -7.71875 5.796875 -7.78125 C 5.753906 -7.84375 5.644531 -7.875 5.46875 -7.875 L 3.046875 -7.875 L 3.046875 -5.40625 L 6.5 -5.40625 L 6.5 -3.96875 L 3.046875 -3.96875 L 3.046875 -1.234375 L 4.296875 -1.1875 L 4.296875 0 Z M 0.46875 0 "/></g></g></g><g fill="#114d4d" fill-opacity="1"><g transform="translate(76.802388, 80.252129)"><g><path d="M 0.953125 -1.5625 L 3.203125 -8.09375 L 2.328125 -8.171875 L 2.328125 -9.3125 L 5.53125 -9.3125 L 8.390625 -1.234375 L 8.40625 -1.234375 L 9.203125 -1.1875 L 9.203125 0 L 5.59375 0 L 5.59375 -1.140625 L 6.125 -1.171875 C 6.28125 -1.191406 6.382812 -1.226562 6.4375 -1.28125 C 6.5 -1.34375 6.503906 -1.445312 6.453125 -1.59375 L 6.15625 -2.46875 L 2.890625 -2.46875 L 2.46875 -1.234375 L 3.296875 -1.1875 L 3.296875 0 L 0.0625 0 L 0.0625 -1.140625 L 0.53125 -1.171875 C 0.726562 -1.191406 0.867188 -1.320312 0.953125 -1.5625 Z M 4.515625 -7.734375 L 3.21875 -3.75 L 5.828125 -3.75 L 4.5625 -7.734375 Z M 4.515625 -7.734375 "/></g></g></g><g fill="#114d4d" fill-opacity="1"><g transform="translate(86.065212, 80.252129)"><g><path d="M 0.453125 0 L 0.453125 -1.140625 L 0.953125 -1.171875 C 1.191406 -1.191406 1.3125 -1.320312 1.3125 -1.5625 L 1.3125 -8.078125 L 0.515625 -8.125 L 0.515625 -9.3125 L 3.03125 -9.3125 L 7 -2.890625 L 7.03125 -2.890625 L 7.03125 -8.078125 L 6.109375 -8.125 L 6.109375 -9.3125 L 9.515625 -9.3125 L 9.515625 -8.171875 L 9.015625 -8.140625 C 8.796875 -8.117188 8.6875 -7.972656 8.6875 -7.703125 L 8.6875 0 L 7.046875 0 L 3 -6.53125 L 2.96875 -6.53125 L 2.96875 -1.234375 L 3.875 -1.1875 L 3.875 0 Z M 0.453125 0 "/></g></g></g><g fill="#114d4d" fill-opacity="1"><g transform="translate(95.92971, 80.252129)"><g><path d="M 3.046875 -1.5625 L 3.046875 -7.921875 L 1.953125 -7.921875 C 1.742188 -7.921875 1.640625 -7.773438 1.640625 -7.484375 L 1.640625 -6.828125 L 0.203125 -6.9375 L 0.203125 -9.3125 L 7.53125 -9.3125 L 7.53125 -6.9375 L 6.109375 -6.828125 L 6.109375 -7.484375 C 6.109375 -7.648438 6.082031 -7.765625 6.03125 -7.828125 C 5.988281 -7.890625 5.878906 -7.921875 5.703125 -7.921875 L 4.75 -7.921875 L 4.75 -1.234375 L 5.859375 -1.1875 L 5.859375 0 L 1.90625 0 L 1.90625 -1.140625 L 2.640625 -1.171875 C 2.910156 -1.203125 3.046875 -1.332031 3.046875 -1.5625 Z M 3.046875 -1.5625 "/></g></g></g><g fill="#6e9987" fill-opacity="1"><g transform="translate(66.574905, 88.26454)"><g><path d="M 1.203125 -0.453125 C 1.609375 -0.453125 1.8125 -0.613281 1.8125 -0.9375 C 1.8125 -1.101562 1.722656 -1.222656 1.546875 -1.296875 C 1.453125 -1.347656 1.328125 -1.390625 1.171875 -1.421875 C 1.023438 -1.460938 0.898438 -1.503906 0.796875 -1.546875 C 0.703125 -1.585938 0.609375 -1.644531 0.515625 -1.71875 C 0.316406 -1.863281 0.21875 -2.085938 0.21875 -2.390625 C 0.21875 -2.703125 0.320312 -2.945312 0.53125 -3.125 C 0.738281 -3.300781 1.015625 -3.390625 1.359375 -3.390625 C 1.703125 -3.390625 2.019531 -3.320312 2.3125 -3.1875 L 2.3125 -2.4375 L 1.8125 -2.390625 L 1.8125 -2.6875 C 1.8125 -2.738281 1.800781 -2.773438 1.78125 -2.796875 C 1.75 -2.859375 1.632812 -2.890625 1.4375 -2.890625 C 1.238281 -2.890625 1.085938 -2.851562 0.984375 -2.78125 C 0.890625 -2.71875 0.84375 -2.609375 0.84375 -2.453125 C 0.84375 -2.347656 0.882812 -2.257812 0.96875 -2.1875 C 1.019531 -2.125 1.097656 -2.078125 1.203125 -2.046875 C 1.304688 -2.015625 1.414062 -1.976562 1.53125 -1.9375 C 1.65625 -1.90625 1.765625 -1.863281 1.859375 -1.8125 C 1.953125 -1.769531 2.046875 -1.710938 2.140625 -1.640625 C 2.347656 -1.492188 2.453125 -1.257812 2.453125 -0.9375 C 2.453125 -0.625 2.335938 -0.378906 2.109375 -0.203125 C 1.890625 -0.0234375 1.59375 0.0625 1.21875 0.0625 C 0.851562 0.0625 0.523438 -0.00390625 0.234375 -0.140625 L 0.234375 -0.9375 L 0.734375 -0.96875 L 0.734375 -0.65625 C 0.734375 -0.601562 0.738281 -0.566406 0.75 -0.546875 C 0.769531 -0.523438 0.8125 -0.503906 0.875 -0.484375 C 0.945312 -0.460938 1.054688 -0.453125 1.203125 -0.453125 Z M 1.203125 -0.453125 "/></g></g></g><g fill="#6e9987" fill-opacity="1"><g transform="translate(69.184928, 88.26454)"><g><path d="M 1.09375 -0.5625 L 1.09375 -2.828125 L 0.703125 -2.828125 C 0.617188 -2.828125 0.578125 -2.773438 0.578125 -2.671875 L 0.578125 -2.4375 L 0.078125 -2.46875 L 0.078125 -3.328125 L 2.6875 -3.328125 L 2.6875 -2.46875 L 2.1875 -2.4375 L 2.1875 -2.671875 C 2.1875 -2.734375 2.175781 -2.773438 2.15625 -2.796875 C 2.132812 -2.816406 2.09375 -2.828125 2.03125 -2.828125 L 1.6875 -2.828125 L 1.6875 -0.4375 L 2.09375 -0.421875 L 2.09375 0 L 0.6875 0 L 0.6875 -0.40625 L 0.9375 -0.421875 C 1.039062 -0.429688 1.09375 -0.476562 1.09375 -0.5625 Z M 1.09375 -0.5625 "/></g></g></g><g fill="#6e9987" fill-opacity="1"><g transform="translate(71.949954, 88.26454)"><g><path d="M 1 -2.734375 L 1 -1.078125 C 1 -0.847656 1.054688 -0.679688 1.171875 -0.578125 C 1.285156 -0.484375 1.445312 -0.4375 1.65625 -0.4375 C 1.863281 -0.4375 2.023438 -0.488281 2.140625 -0.59375 C 2.253906 -0.695312 2.3125 -0.851562 2.3125 -1.0625 L 2.3125 -2.890625 L 2.015625 -2.90625 L 2.015625 -3.328125 L 3.203125 -3.328125 L 3.203125 -2.921875 L 3.046875 -2.90625 C 2.941406 -2.894531 2.890625 -2.84375 2.890625 -2.75 L 2.890625 -0.96875 C 2.890625 -0.644531 2.773438 -0.390625 2.546875 -0.203125 C 2.328125 -0.0234375 2.015625 0.0625 1.609375 0.0625 C 1.210938 0.0625 0.910156 -0.0234375 0.703125 -0.203125 C 0.503906 -0.378906 0.40625 -0.660156 0.40625 -1.046875 L 0.40625 -2.890625 L 0.109375 -2.90625 L 0.109375 -3.328125 L 1.3125 -3.328125 L 1.3125 -2.921875 L 1.15625 -2.90625 C 1.101562 -2.894531 1.0625 -2.878906 1.03125 -2.859375 C 1.007812 -2.835938 1 -2.796875 1 -2.734375 Z M 1 -2.734375 "/></g></g></g><g fill="#6e9987" fill-opacity="1"><g transform="translate(75.244983, 88.26454)"><g><path d="M 0.171875 0 L 0.171875 -0.40625 L 0.328125 -0.421875 C 0.429688 -0.429688 0.484375 -0.476562 0.484375 -0.5625 L 0.484375 -2.890625 L 0.1875 -2.90625 L 0.1875 -3.328125 L 1.5625 -3.328125 C 2.050781 -3.328125 2.429688 -3.195312 2.703125 -2.9375 C 2.984375 -2.675781 3.125 -2.289062 3.125 -1.78125 C 3.125 -1.46875 3.082031 -1.191406 3 -0.953125 C 2.914062 -0.710938 2.800781 -0.53125 2.65625 -0.40625 C 2.375 -0.132812 2.019531 0 1.59375 0 Z M 1.09375 -2.84375 L 1.09375 -0.484375 L 1.59375 -0.484375 C 1.882812 -0.484375 2.109375 -0.582031 2.265625 -0.78125 C 2.429688 -0.988281 2.515625 -1.289062 2.515625 -1.6875 C 2.515625 -2.457031 2.1875 -2.84375 1.53125 -2.84375 Z M 1.09375 -2.84375 "/></g></g></g><g fill="#6e9987" fill-opacity="1"><g transform="translate(78.570015, 88.26454)"><g><path d="M 0.46875 -0.578125 L 0.46875 -2.890625 L 0.1875 -2.90625 L 0.1875 -3.328125 L 1.390625 -3.328125 L 1.390625 -2.921875 L 1.234375 -2.90625 C 1.128906 -2.894531 1.078125 -2.84375 1.078125 -2.75 L 1.078125 -0.4375 L 1.375 -0.421875 L 1.375 0 L 0.15625 0 L 0.15625 -0.40625 L 0.328125 -0.421875 C 0.378906 -0.429688 0.414062 -0.445312 0.4375 -0.46875 C 0.457031 -0.488281 0.46875 -0.523438 0.46875 -0.578125 Z M 0.46875 -0.578125 "/></g></g></g><g fill="#6e9987" fill-opacity="1"><g transform="translate(80.105028, 88.26454)"><g><path d="M 1.71875 -3.390625 C 2.113281 -3.390625 2.445312 -3.25 2.71875 -2.96875 C 2.988281 -2.6875 3.125 -2.253906 3.125 -1.671875 C 3.125 -1.097656 2.988281 -0.664062 2.71875 -0.375 C 2.457031 -0.0820312 2.097656 0.0625 1.640625 0.0625 C 1.191406 0.0625 0.835938 -0.0820312 0.578125 -0.375 C 0.328125 -0.664062 0.203125 -1.09375 0.203125 -1.65625 C 0.203125 -1.957031 0.242188 -2.222656 0.328125 -2.453125 C 0.421875 -2.691406 0.539062 -2.875 0.6875 -3 C 0.988281 -3.257812 1.332031 -3.390625 1.71875 -3.390625 Z M 0.828125 -1.6875 C 0.828125 -0.851562 1.113281 -0.4375 1.6875 -0.4375 C 1.988281 -0.4375 2.203125 -0.5625 2.328125 -0.8125 C 2.441406 -1.039062 2.5 -1.316406 2.5 -1.640625 C 2.5 -1.929688 2.445312 -2.195312 2.34375 -2.4375 C 2.289062 -2.570312 2.207031 -2.675781 2.09375 -2.75 C 1.976562 -2.832031 1.828125 -2.875 1.640625 -2.875 C 1.460938 -2.875 1.304688 -2.8125 1.171875 -2.6875 C 1.035156 -2.570312 0.941406 -2.425781 0.890625 -2.25 C 0.847656 -2.082031 0.828125 -1.894531 0.828125 -1.6875 Z M 0.828125 -1.6875 "/></g></g></g></svg>